<?xml version="1.0" standalone="no"?>
<!DOCTYPE svg PUBLIC "-//W3C//DTD SVG 20010904//EN"
 "http://www.w3.org/TR/2001/REC-SVG-20010904/DTD/svg10.dtd">
<svg version="1.0" xmlns="http://www.w3.org/2000/svg"
 width="1236.000000pt" height="577.000000pt" viewBox="0 0 1236.000000 577.000000"
 preserveAspectRatio="xMidYMid meet">

<g transform="translate(0.000000,577.000000) scale(0.100000,-0.100000)"
fill="#000000" stroke="none">
<path d="M1780 5648 c-493 -104 -915 -512 -1048 -1013 -19 -73 -35 -176 -92
-595 -11 -80 -28 -210 -39 -290 -11 -80 -34 -248 -51 -375 -17 -126 -40 -293
-50 -370 -35 -251 -59 -427 -85 -625 -14 -107 -32 -240 -40 -295 -8 -55 -31
-217 -50 -360 -19 -143 -50 -377 -70 -520 -20 -143 -40 -291 -45 -330 -25
-191 -111 -823 -116 -847 l-6 -28 5262 0 5262 0 89 30 c441 147 797 536 913
995 14 55 46 280 126 865 16 124 73 540 125 925 53 385 116 851 141 1035 24
184 62 463 84 620 21 157 59 438 85 625 25 187 52 386 60 443 8 56 15 109 15
117 0 13 -630 15 -5187 14 -5157 -1 -5189 -1 -5283 -21z m10250 -187 c0 -10
-11 -97 -25 -192 -13 -96 -33 -244 -45 -329 -12 -85 -30 -218 -40 -295 -11
-77 -31 -225 -45 -330 -14 -104 -34 -253 -45 -330 -11 -77 -33 -243 -50 -370
-17 -126 -37 -275 -45 -330 -8 -55 -37 -271 -65 -480 -28 -209 -59 -443 -70
-520 -39 -280 -60 -434 -90 -665 -17 -129 -33 -245 -36 -258 l-4 -22 -5500 0
c-4393 0 -5500 3 -5500 13 0 13 32 253 49 372 6 39 24 171 41 295 64 484 160
1188 170 1255 5 39 46 336 90 660 44 325 89 623 100 662 31 111 91 242 156
340 194 291 503 490 830 532 39 5 2262 9 5097 10 4922 1 5027 1 5027 -18z
m-9797 -4317 c37 -3 70 -10 72 -14 3 -5 -6 -44 -20 -87 l-24 -78 -122 0 c-117
0 -121 -1 -143 -26 -30 -35 -75 -276 -58 -313 14 -31 65 -40 177 -31 l86 7 -3
-83 -3 -84 -85 -13 c-191 -29 -330 0 -375 78 -42 74 -17 343 46 490 24 55 103
136 143 146 90 22 142 24 309 8z m1290 0 c42 -3 77 -9 77 -12 0 -3 -11 -42
-25 -87 l-24 -80 -120 0 c-107 0 -122 -2 -140 -20 -24 -24 -44 -96 -62 -223
-18 -127 -17 -128 141 -125 l120 3 0 -73 c0 -39 -4 -77 -8 -84 -4 -6 -45 -17
-92 -22 -189 -24 -300 -5 -354 62 -28 35 -31 46 -35 123 -4 108 30 296 68 379
30 63 76 117 122 140 36 19 142 34 204 30 28 -3 85 -7 128 -11z m3107 -9 c53
-19 88 -49 106 -92 29 -68 9 -286 -38 -422 -26 -72 -82 -142 -138 -171 -79
-40 -262 -51 -362 -20 -48 14 -97 56 -114 97 -32 75 -2 332 52 450 62 136 166
187 364 178 47 -2 105 -11 130 -20z m2128 9 c40 -4 74 -10 77 -13 2 -4 -7 -43
-19 -87 l-23 -79 -112 4 c-120 4 -171 -8 -171 -39 0 -24 16 -35 106 -74 140
-61 191 -120 181 -212 -8 -78 -45 -144 -98 -177 -84 -51 -240 -69 -406 -46
-43 6 -79 12 -80 13 -1 1 8 39 20 85 l22 83 125 -7 c138 -7 180 1 180 35 0 24
-39 50 -122 81 -127 47 -181 132 -158 246 23 109 106 177 237 193 66 8 91 7
241 -6z m1432 5 c135 -22 180 -76 180 -215 0 -147 -39 -314 -92 -394 -64 -97
-172 -137 -345 -127 -110 6 -168 29 -209 83 -28 37 -29 40 -28 158 1 178 43
329 113 408 70 80 217 114 381 87z m-9018 -37 c60 -30 83 -74 75 -148 -7 -65
-30 -106 -79 -140 l-37 -26 35 -30 c43 -38 58 -90 44 -154 -21 -93 -75 -150
-170 -178 -82 -24 -421 -19 -447 7 -4 4 3 65 16 135 12 70 33 190 47 267 14
77 29 167 35 200 18 108 -7 97 227 93 192 -3 210 -5 254 -26z m468 11 c0 -9
-9 -64 -20 -122 -47 -257 -100 -551 -100 -561 0 -6 -41 -10 -109 -10 l-108 0
13 73 c7 39 27 151 44 247 17 96 36 200 41 230 5 30 14 79 20 108 l10 52 105
0 c90 0 104 -2 104 -17z m938 -116 c17 -73 32 -140 32 -150 0 -29 15 -19 38
26 12 23 50 89 85 147 l63 105 113 3 113 3 -108 -158 c-241 -353 -213 -302
-235 -430 -10 -63 -19 -116 -19 -119 0 -2 -50 -4 -110 -4 l-111 0 6 38 c4 20
13 73 21 117 l15 80 -80 238 -80 237 112 0 112 0 33 -133z m1337 96 c-11 -61
-54 -301 -70 -388 -24 -126 -35 -115 116 -115 131 0 131 0 126 -22 -3 -13 -11
-51 -18 -85 l-13 -63 -238 0 c-131 0 -238 3 -238 8 0 4 9 59 21 122 32 179 66
365 85 478 l18 102 109 0 108 0 -6 -37z m852 25 c-2 -7 -10 -46 -17 -85 l-13
-73 -139 0 c-76 0 -138 -3 -138 -7 -1 -5 -5 -27 -9 -50 -6 -30 -5 -43 3 -44 6
0 62 0 125 1 l113 1 -5 -33 c-3 -18 -9 -54 -13 -80 l-6 -48 -102 -1 c-55 -1
-108 -1 -116 0 -27 2 -38 -13 -45 -61 l-7 -48 142 0 c110 0 141 -3 137 -12 -2
-7 -10 -46 -17 -85 l-13 -73 -249 0 c-199 0 -248 3 -248 13 0 8 9 63 20 123
29 163 70 401 81 469 5 33 11 70 14 83 l5 22 251 0 c197 0 250 -3 246 -12z
m497 -25 c-8 -82 -11 -513 -4 -513 5 0 16 24 26 53 9 28 48 126 86 216 58 139
68 173 68 223 l0 58 94 0 94 0 6 -72 c6 -74 13 -206 21 -377 4 -92 10 -118 19
-90 2 8 42 131 89 274 l85 260 106 3 c58 1 106 -1 106 -6 0 -5 -18 -53 -41
-108 -22 -54 -72 -175 -111 -269 -39 -93 -79 -192 -90 -219 -10 -27 -26 -62
-34 -78 l-15 -28 -134 0 -135 0 0 181 c0 171 -9 217 -25 132 -3 -20 -30 -99
-58 -175 l-51 -138 -137 0 -136 0 -7 118 c-9 155 -14 240 -26 401 -6 74 -10
148 -10 163 l0 28 109 0 109 0 -4 -37z m2099 13 c21 -10 50 -35 65 -54 24 -32
27 -43 26 -116 0 -105 -28 -170 -95 -229 l-49 -43 44 -122 44 -123 -115 3
-116 3 -31 104 c-23 78 -36 106 -51 111 -23 9 -45 -5 -45 -29 0 -9 -7 -55 -16
-103 l-16 -88 -105 0 -105 0 6 25 c3 13 15 75 26 137 10 62 33 190 49 283 17
94 33 186 37 205 3 19 8 41 10 48 3 11 44 13 201 10 170 -3 203 -6 236 -22z
m449 -117 c-13 -77 -21 -144 -17 -147 17 -17 68 38 149 157 l88 131 114 0 114
0 -110 -165 c-60 -90 -110 -171 -110 -178 0 -11 86 -300 105 -354 3 -10 -23
-13 -113 -13 l-117 0 -34 114 c-19 63 -37 120 -41 126 -5 8 -21 10 -47 6 l-39
-7 -18 -102 c-10 -56 -18 -109 -19 -117 -2 -12 -23 -16 -108 -18 l-106 -3 13
78 c7 43 21 128 32 188 11 61 32 180 47 265 15 85 28 161 31 168 2 8 33 12
107 12 l103 0 -24 -141z m1398 117 c0 -14 -6 -55 -14 -93 -8 -37 -17 -85 -20
-105 l-7 -38 95 0 94 0 6 28 c3 15 13 70 21 122 9 52 19 98 21 102 7 10 214
11 214 1 0 -9 -84 -479 -109 -608 l-17 -90 -107 -3 -107 -3 6 43 c4 24 15 83
24 133 10 49 16 93 14 97 -3 5 -45 8 -94 8 -99 0 -93 4 -105 -80 -3 -25 -13
-80 -22 -122 l-16 -78 -107 0 -107 0 14 78 c7 42 22 127 33 187 41 238 71 400
76 422 6 22 10 23 110 23 104 0 104 0 104 -24z m1773 0 c21 -10 50 -35 65 -54
24 -32 27 -44 27 -116 -1 -100 -25 -175 -74 -229 -56 -62 -107 -80 -231 -82
l-105 -2 -18 -102 -19 -101 -105 0 c-94 0 -104 2 -100 18 6 19 23 115 67 372
33 190 49 275 57 303 5 18 18 19 201 15 168 -3 203 -6 235 -22z m-7226 -869
c6 -4 14 -25 18 -47 9 -51 25 -52 25 -2 0 42 8 58 30 57 16 0 16 -14 -1 -101
-8 -44 -14 -53 -35 -57 -29 -5 -30 -4 -39 51 -8 48 -25 57 -25 13 0 -42 -10
-61 -31 -61 -15 0 -18 5 -15 23 3 12 10 47 16 78 11 56 24 66 57 46z m363 -2
c26 -31 9 -113 -29 -142 -23 -17 -77 -16 -95 3 -30 30 -11 128 28 144 34 14
83 11 96 -5z m255 5 c35 -13 41 -37 20 -76 -10 -18 -15 -42 -12 -53 4 -17 0
-21 -18 -21 -16 0 -25 7 -29 25 -8 32 -26 33 -26 1 0 -25 -19 -39 -38 -27 -7
4 -6 26 4 75 8 37 17 72 20 77 7 12 46 11 79 -1z m305 -10 c0 -15 -7 -20 -24
-20 -22 0 -26 -6 -37 -60 -9 -49 -15 -60 -31 -60 -18 0 -19 5 -13 60 6 51 5
60 -9 60 -9 0 -16 8 -16 20 0 18 7 20 65 20 58 0 65 -2 65 -20z m180 -13 c0
-26 4 -33 21 -33 14 0 22 8 26 28 5 25 11 29 41 28 8 -1 6 -19 -9 -97 -8 -42
-14 -53 -30 -53 -14 0 -19 7 -19 30 0 25 -4 30 -25 30 -21 0 -25 -5 -25 -30 0
-26 -4 -30 -26 -30 -19 0 -24 4 -20 18 3 9 8 40 12 67 7 54 18 75 40 75 9 0
14 -12 14 -33z m358 11 c3 -15 -4 -18 -32 -18 -25 0 -36 -4 -36 -15 0 -9 9
-15 25 -15 16 0 25 -6 25 -15 0 -10 -10 -15 -30 -15 -20 0 -30 -5 -30 -15 0
-10 10 -15 30 -15 20 0 30 -5 30 -15 0 -12 -13 -15 -55 -15 -39 0 -55 4 -55
13 0 33 24 133 34 140 6 4 29 6 51 5 29 -2 41 -8 43 -20z m252 4 c17 -13 20
-24 15 -44 -4 -15 -13 -32 -20 -38 -10 -8 -11 -18 -5 -36 8 -20 7 -24 -10 -24
-13 0 -24 10 -30 25 -12 31 -28 32 -32 3 -2 -15 -11 -24 -26 -26 -19 -3 -23 0
-19 15 3 10 9 41 13 68 3 28 11 56 16 63 15 18 72 15 98 -6z m239 -35 c17 -57
31 -61 31 -9 0 40 7 55 29 60 10 2 12 -10 6 -60 -11 -91 -18 -107 -49 -101
-19 4 -26 13 -31 42 -10 62 -22 67 -29 13 -5 -38 -11 -51 -26 -55 -11 -3 -20
0 -20 5 0 31 25 144 33 149 23 16 43 0 56 -44z m485 43 c29 -11 34 -41 11 -60
-11 -9 -12 -16 -4 -26 30 -36 -32 -82 -96 -70 -19 4 -35 8 -35 10 0 8 22 124
26 139 6 19 56 23 98 7z m294 -7 c-2 -13 -14 -19 -41 -21 -44 -4 -46 -25 -3
-30 35 -4 29 -25 -9 -32 -40 -7 -45 -30 -6 -30 21 0 31 -5 31 -15 0 -12 -13
-15 -56 -15 -53 0 -56 1 -51 23 3 12 9 40 13 62 11 68 19 75 75 75 43 0 50 -3
47 -17z m246 -34 c4 -29 10 -65 13 -80 5 -26 3 -29 -21 -29 -15 0 -25 5 -23
13 3 19 -52 22 -59 3 -6 -16 -44 -23 -44 -8 0 5 15 40 34 78 30 61 37 70 63
72 29 2 31 0 37 -49z m289 45 c13 -13 -7 -34 -33 -34 -33 0 -36 -3 -45 -53 -7
-36 -7 -37 24 -37 24 0 31 -4 31 -20 0 -16 -7 -20 -35 -20 -40 0 -79 31 -71
58 2 9 7 32 11 49 4 18 16 40 28 48 21 15 78 21 90 9z m187 -31 c0 -30 3 -34
23 -31 15 2 23 11 25 29 2 18 11 29 25 33 11 3 23 4 25 2 8 -9 -23 -142 -36
-153 -22 -18 -34 -5 -27 28 6 26 4 29 -19 29 -21 0 -28 -6 -32 -30 -5 -21 -12
-30 -26 -30 -19 0 -19 5 -13 63 8 72 18 94 39 94 11 0 16 -10 16 -34z m360 15
c0 -14 -8 -18 -36 -18 -42 0 -43 -23 -1 -28 36 -4 24 -32 -14 -32 -19 0 -29
-5 -29 -15 0 -10 10 -15 30 -15 20 0 30 -5 30 -15 0 -12 -13 -15 -55 -15 -61
0 -60 -1 -45 70 22 99 15 91 70 89 41 -2 50 -5 50 -21z m253 16 c13 -14 -7
-34 -34 -34 -36 0 -38 -16 -4 -32 36 -16 44 -56 15 -80 -19 -16 -110 -27 -110
-14 0 23 17 36 46 36 43 0 43 13 -1 39 -40 23 -44 42 -15 71 19 19 88 29 103
14z"/>
<path d="M3055 5036 c-57 -26 -110 -81 -142 -146 -13 -25 -106 -270 -209 -545
-103 -275 -190 -506 -193 -513 -4 -7 -31 83 -60 200 -69 276 -114 431 -157
544 -102 269 -251 396 -490 419 -77 8 -223 -7 -301 -30 -161 -48 -251 -185
-223 -344 18 -104 27 -131 360 -1071 35 -96 75 -211 90 -255 16 -44 82 -227
148 -407 l120 -327 -5 -240 c-6 -231 -5 -242 17 -312 19 -59 33 -82 79 -129
67 -67 155 -114 261 -136 123 -26 207 -5 277 68 41 43 58 84 78 194 51 282 67
350 97 404 180 320 393 706 491 885 65 121 116 208 113 194 -33 -149 -31 -599
4 -827 64 -420 194 -674 410 -802 162 -96 405 -132 590 -88 199 48 379 246
545 603 237 507 370 1219 311 1665 -8 58 -13 106 -12 108 2 1 20 -64 41 -145
52 -204 188 -703 231 -848 174 -585 349 -1121 389 -1190 80 -139 280 -232 480
-223 102 4 164 33 213 100 l35 47 36 -28 c126 -99 364 -151 483 -104 96 37
115 61 263 350 167 324 172 334 448 848 121 226 284 525 362 665 78 140 156
284 174 320 21 45 30 56 26 35 -26 -162 -86 -1311 -88 -1695 -2 -235 -2 -235
25 -292 31 -66 93 -130 160 -164 79 -40 234 -77 296 -71 82 9 148 55 189 132
6 11 48 191 93 400 44 209 97 452 117 540 19 88 44 198 54 245 47 220 219 892
230 904 5 6 9 -26 9 -75 0 -46 4 -221 10 -389 5 -168 14 -492 20 -720 16 -589
20 -644 57 -722 57 -120 157 -213 289 -268 94 -39 173 -48 282 -31 125 20 434
91 478 111 88 38 144 130 144 234 0 104 -45 233 -105 305 -25 28 -25 31 -8 36
100 31 179 105 204 193 16 59 6 218 -21 322 -51 198 -148 297 -302 308 -54 4
-68 8 -68 21 1 9 13 76 28 150 l27 134 115 23 c63 12 192 37 285 54 94 17 193
42 221 55 110 49 171 133 199 274 15 71 17 125 12 355 -6 292 -15 360 -62 460
-36 77 -104 148 -167 177 -78 35 -261 33 -443 -5 -377 -79 -724 -205 -1094
-397 l-122 -64 3 -78 c3 -74 -4 -98 -17 -57 -13 42 -106 169 -180 248 -168
179 -344 290 -471 299 -83 6 -137 -7 -192 -47 -80 -57 -133 -173 -153 -330
l-12 -90 -33 82 c-66 165 -220 355 -332 412 -140 71 -275 24 -377 -129 -40
-60 -149 -309 -300 -680 -53 -132 -98 -241 -100 -243 -1 -2 -8 25 -13 58 -15
83 -51 159 -104 216 -50 54 -208 169 -288 209 -122 62 -245 72 -335 29 -108
-51 -163 -151 -224 -411 -24 -98 -46 -187 -50 -197 -5 -12 -14 37 -25 130 -40
335 -115 530 -264 681 -75 76 -145 121 -305 198 -182 87 -219 99 -307 99 -88
0 -137 -21 -192 -82 -78 -87 -87 -216 -28 -451 29 -120 36 -175 11 -89 -20 65
-97 210 -150 280 -130 171 -347 320 -565 387 -127 39 -297 22 -426 -44 -129
-65 -266 -210 -362 -384 l-41 -73 -37 98 c-82 218 -154 341 -246 423 -92 80
-228 104 -329 57z m182 -201 c78 -52 199 -298 243 -498 26 -112 -9 -221 -190
-592 -91 -189 -146 -293 -320 -610 -127 -231 -250 -452 -314 -564 l-76 -133
-34 -172 c-19 -94 -40 -201 -46 -238 -7 -37 -18 -73 -26 -79 -40 -33 -209 27
-251 90 -22 33 -23 40 -23 298 l0 265 -49 136 c-46 127 -135 373 -218 602 -19
52 -66 183 -103 290 -38 107 -105 299 -150 425 -189 531 -214 619 -190 665 21
39 94 63 211 68 269 11 353 -80 474 -514 49 -177 125 -487 205 -834 70 -301
70 -304 79 -294 4 5 36 81 71 169 34 88 85 216 112 285 27 69 76 197 109 285
33 88 64 169 69 180 9 19 227 607 257 692 8 23 28 57 44 74 25 27 34 30 61 25
18 -3 42 -13 55 -21z m7853 -54 c34 -23 67 -95 79 -172 6 -35 13 -156 16 -269
7 -218 -6 -344 -39 -395 -27 -40 -67 -54 -269 -90 -304 -55 -481 -95 -493
-111 -6 -8 -28 -101 -48 -207 -21 -105 -46 -235 -56 -287 -10 -52 -22 -119
-26 -149 l-7 -54 27 7 c104 26 274 33 314 12 52 -27 92 -135 108 -290 11 -108
20 -103 -341 -185 -71 -16 -146 -33 -166 -36 l-36 -7 -19 -129 c-11 -71 -19
-131 -17 -133 2 -2 29 3 61 10 89 21 285 36 314 25 50 -19 98 -116 98 -196 0
-23 -6 -47 -12 -53 -16 -12 -313 -80 -427 -97 -67 -10 -95 -10 -131 -1 -90 24
-183 94 -221 167 -24 49 -27 77 -39 514 -6 193 -12 424 -15 515 -20 625 -36
1222 -33 1224 19 12 255 124 319 152 291 125 668 233 884 254 97 9 142 4 175
-19z m-6605 -35 c143 -52 304 -166 398 -281 86 -106 148 -249 172 -398 30
-183 13 -547 -36 -806 -117 -612 -381 -1163 -608 -1270 -51 -24 -67 -26 -181
-25 -137 0 -183 10 -277 55 -184 90 -300 338 -349 744 -62 511 44 1194 248
1600 172 342 386 471 633 381z m3543 20 c66 -35 191 -203 232 -313 42 -113 34
-252 -23 -388 -21 -49 -189 -362 -312 -580 -34 -60 -85 -155 -115 -210 -29
-55 -67 -127 -85 -160 -18 -33 -70 -130 -115 -215 -46 -85 -96 -180 -113 -210
-34 -61 -189 -360 -300 -577 -89 -175 -99 -183 -206 -164 -93 17 -184 62 -211
105 -14 24 -27 82 -45 202 -23 160 -45 351 -45 398 0 42 -20 -10 -131 -347
-91 -275 -116 -341 -136 -354 -20 -13 -34 -14 -99 -4 -41 6 -97 20 -123 32
-88 37 -105 65 -183 290 -39 112 -76 224 -83 249 -7 25 -35 117 -63 205 -74
236 -113 364 -127 415 -7 25 -29 99 -48 165 -19 66 -56 199 -82 295 -26 96
-55 204 -65 240 -41 141 -150 580 -165 656 -19 103 -21 179 -5 199 20 24 69
18 159 -20 295 -125 420 -236 485 -433 35 -106 51 -192 81 -437 14 -115 36
-300 50 -410 14 -110 27 -218 30 -240 12 -111 74 -572 81 -609 8 -40 19 -18
32 64 46 293 196 1033 273 1350 45 186 68 239 111 264 25 16 36 16 75 7 61
-16 114 -44 198 -104 145 -105 164 -136 165 -262 0 -79 -36 -476 -85 -950 -35
-332 -39 -381 -31 -374 6 5 82 194 236 579 34 85 99 247 145 360 46 113 140
342 209 510 231 566 312 742 359 775 27 19 41 19 75 1z m888 -81 c126 -70 309
-254 375 -379 57 -107 56 -120 -70 -616 -137 -543 -150 -601 -363 -1600 -11
-52 -24 -103 -29 -112 -12 -23 -38 -23 -122 1 -75 21 -131 54 -146 89 -38 82
41 1619 120 2347 34 317 71 360 235 270z"/>
<path d="M4434 3880 c-96 -39 -266 -463 -353 -880 -56 -274 -60 -590 -9 -729
25 -67 49 -91 90 -91 86 0 216 243 292 545 76 302 101 498 101 795 0 258 -9
316 -53 350 -27 22 -36 23 -68 10z"/>
<path d="M6376 959 c-33 -26 -44 -52 -61 -152 -17 -94 -21 -155 -11 -184 13
-40 124 -44 159 -5 20 21 53 158 63 252 6 61 4 70 -15 89 -29 29 -98 29 -135
0z"/>
<path d="M9990 953 c-24 -22 -34 -44 -45 -98 -19 -88 -29 -226 -18 -242 13
-18 93 -27 125 -14 37 14 56 55 79 174 24 129 24 162 -1 187 -31 31 -101 27
-140 -7z"/>
<path d="M886 963 c-2 -10 -8 -37 -11 -60 l-7 -43 65 0 c73 0 97 16 97 66 0
43 -17 54 -81 54 -46 0 -59 -3 -63 -17z"/>
<path d="M831 658 c-6 -37 -7 -66 -2 -71 5 -5 40 -8 76 -5 78 5 95 19 95 80 0
47 -18 58 -98 58 l-60 0 -11 -62z"/>
<path d="M7107 973 c-7 -10 -27 -122 -27 -145 0 -15 8 -18 58 -18 68 1 91 15
103 67 12 54 11 61 -11 83 -15 15 -33 20 -69 20 -28 0 -52 -3 -54 -7z"/>
<path d="M10725 968 c-6 -17 -25 -139 -25 -160 0 -15 9 -18 55 -18 72 0 100
25 110 99 10 71 -8 91 -82 91 -34 0 -55 -5 -58 -12z"/>
<path d="M4040 211 c-5 -11 -10 -33 -10 -50 0 -24 4 -31 20 -31 22 0 26 7 34
55 8 42 -25 61 -44 26z"/>
<path d="M4320 200 c0 -13 7 -20 20 -20 13 0 20 7 20 20 0 13 -7 20 -20 20
-13 0 -20 -7 -20 -20z"/>
<path d="M5400 200 c0 -13 7 -20 20 -20 13 0 20 7 20 20 0 13 -7 20 -20 20
-13 0 -20 -7 -20 -20z"/>
<path d="M6130 205 c0 -8 9 -15 20 -15 11 0 20 7 20 15 0 8 -9 15 -20 15 -11
0 -20 -7 -20 -15z"/>
<path d="M6133 163 c-7 -3 -13 -11 -13 -20 0 -17 41 -14 47 3 4 13 -16 23 -34
17z"/>
<path d="M6673 190 c-11 -30 -3 -47 17 -35 12 7 14 65 2 65 -4 0 -13 -13 -19
-30z"/>
</g>
</svg>
